# xmcd
#
# Track frame offsets: 
#        150
#        26936
#        47765
#        67109
#        83479
#        103156
#        124644
#        154127
#        182097
#        199220
#        219652
#        239155
#
# Disc length: 3380 seconds
#
# Revision: 0
# Processed by: cddbd v1.5.2PL0 Copyright (c) Steve Scherf et al.
# Submitted via: ExactAudioCopy v1.0b4
#
DISCID=b20d320c
DTITLE=Various Artist - Contemporary Blues Interpret The Rolling Ston
DTITLE=es
DYEAR=2000
DGENRE=Blues
TTITLE0=Satisfaction - Junior Wells
TTITLE1=You Can't Always Get What You Want - Luther Allison
TTITLE2=Tumblin' Dice - Johnny Copeland
TTITLE3=Sway - Alvin Youngblood Hart
TTITLE4=Under My Thumb - Lucky Peterson
TTITLE5=Beast Of Burden - Wendell Holmes, Sherman Holmes and Willie "P
TTITLE5=opsy" Dixon
TTITLE6=Wild Horses - Otis Clay
TTITLE7=Ventilator Blues - Clarence "Gatemouth" Brown
TTITLE8=I've Been Loving You Too Long - Ike and Tina Turner
TTITLE9=Heart Of Stone - Joe Louis Walker
TTITLE10=Midnight Rambler - Larry McCray
TTITLE11=It's All Over Now - Bobby Womack
EXTD=
EXTT0=
EXTT1=
EXTT2=
EXTT3=
EXTT4=
EXTT5=
EXTT6=
EXTT7=
EXTT8=
EXTT9=
EXTT10=
EXTT11=
PLAYORDER=
